Coordinates
version=1
nRows=20
nColumns=34
inDegrees=yes

Units are S.I. units (second, meters, Newtons, ...)
If the header above contains a line with 'inDegrees', this indicates whether rotational values are in degrees (yes) or radians (no).

endheader
time	pelvis_tilt	pelvis_list	pelvis_rotation	pelvis_tx	pelvis_ty	pelvis_tz	hip_flexion_r	hip_adduction_r	hip_rotation_r	knee_angle_r	ankle_angle_r	subtalar_angle_r	mtp_angle_r	hip_flexion_l	hip_adduction_l	hip_rotation_l	knee_angle_l	ankle_angle_l	subtalar_angle_l	mtp_angle_l	lumbar_extension	lumbar_bending	lumbar_rotation	arm_flex_r	arm_add_r	arm_rot_r	elbow_flex_r	pro_sup_r	arm_flex_l	arm_add_l	arm_rot_l	elbow_flex_l	pro_sup_l
      1.95000000	     -2.67502097	      3.51739354	     -1.19019012	      0.27490114	      0.91964383	     -0.25416639	     27.04822288	     -1.28887610	     -1.06914597	    -48.69297111	      0.09219575	     -9.11967024	     19.80569443	      1.68430056	      7.58378552	     -0.30826197	    -12.06870763	      9.62664513	      0.20195105	      6.91397479	     -3.40727933	     -2.59139059	     -2.99525926	     -5.10459380	    -16.82567080	      9.76361761	     20.71700794	     90.00000000	      3.18261652	    -17.83750767	     23.06633237	     27.48814944	     90.00000000
      1.96000000	     -2.45504167	      3.28065277	     -0.82740790	      0.28786348	      0.91981230	     -0.25418207	     27.07933045	     -1.14480363	     -1.63810386	    -45.04870070	      0.08712733	    -10.06348699	     19.43457545	      0.01185790	      7.30532441	     -0.07620787	    -11.10847940	      9.85708121	      0.57153071	      6.78764638	     -3.72167732	     -2.29223120	     -3.50009274	     -5.45719818	    -16.68311722	      9.28999662	     19.98774106	     90.00000000	      3.74403168	    -18.09793187	     22.70210380	     28.72952699	     90.00000000
      1.97000000	     -2.17718188	      3.20361671	     -0.42908738	      0.30089032	      0.91978019	     -0.25428371	     26.99795939	     -1.23760955	     -2.22787379	    -41.32516808	      0.15342400	    -10.40632954	     19.04031924	     -1.68456692	      7.17444993	      0.16292919	    -10.21866023	     10.11845621	      1.03753599	      6.62783033	     -4.08130620	     -2.17064906	     -4.01489075	     -5.79396111	    -16.49521980	      8.77638200	     19.13446416	     90.00000000	      4.28294052	    -18.40333961	     22.32013081	     30.05014177	     90.00000000
      1.98000000	     -1.97935054	      3.13413371	     -0.04932491	      0.31399031	      0.91938521	     -0.25430268	     26.83699769	     -1.26733602	     -2.75322724	    -37.26837311	      0.16998842	    -10.66831532	     18.54091942	     -3.24924248	      7.03723875	      0.31913105	     -9.39867643	     10.35977244	      1.41374698	      6.50843687	     -4.35484169	     -2.05592954	     -4.48839306	     -6.15596612	    -16.35630854	      8.38095516	     18.46304429	     90.00000000	      4.82170791	    -18.65897370	     21.97794091	     31.24176926	     90.00000000
      1.99000000	     -1.85943229	      3.02108929	      0.37036183	      0.32713602	      0.91874256	     -0.25427821	     26.62815750	     -1.26370112	     -3.27295373	    -33.00758479	      0.08342026	    -10.30000423	     18.19037441	     -4.68782393	      6.81808902	      0.41629556	     -8.66337406	     10.34632117	      1.91774941	      6.35227736	     -4.53280652	     -1.91117212	     -4.95482965	     -6.51493225	    -16.20578686	      8.00934916	     17.73869322	     90.00000000	      5.33875359	    -18.89163649	     21.56575758	     32.36123293	     90.00000000
      2.00000000	     -1.68819949	      2.98861567	      0.79727466	      0.34026843	      0.91787361	     -0.25421448	     26.30389003	     -1.32191760	     -3.79029792	    -28.70517526	      0.14057679	     -9.62330480	     17.91618608	     -6.14656549	      6.66988594	      0.60274272	     -7.99001548	     10.50017298	      2.34701413	      6.27340177	     -4.78037989	     -1.85917730	     -5.42962138	     -6.81982939	    -16.02123870	      7.59113540	     17.02715317	     90.00000000	      5.80396807	    -19.17065120	     21.22137581	     33.63774604	     90.00000000
      2.01000000	     -1.55476912	      2.99225494	      1.19292238	      0.35370232	      0.91681959	     -0.25411254	     25.97028316	     -1.42339492	     -4.42328721	    -24.47507868	      0.19928831	     -8.39430368	     17.68009515	     -7.55378195	      6.53020385	      0.64311323	     -7.36143194	     10.60839389	      2.90486625	      6.26695003	     -4.95476199	     -1.82462233	     -5.87066579	     -7.17489804	    -15.83581577	      7.24187538	     16.45388519	     90.00000000	      6.20261854	    -19.41518531	     20.84023984	     34.81705445	     90.00000000
      2.02000000	     -1.36695903	      3.02259616	      1.58126546	      0.36701204	      0.91573103	     -0.25396070	     25.49514194	     -1.51567230	     -4.92128947	    -20.21806341	      0.24785614	     -6.79317199	     17.26838081	     -8.91341519	      6.39607236	      0.74328742	     -6.92034644	     10.67173077	      3.54661529	      6.30916743	     -5.22910832	     -1.84115832	     -6.28353246	     -7.44936437	    -15.67182081	      6.92387645	     15.83842292	     90.00000000	      6.60379687	    -19.61738215	     20.23734027	     35.99240672	     90.00000000
      2.03000000	     -1.13450991	      3.10477363	      1.99500187	      0.38069897	      0.91447827	     -0.25372486	     24.99533854	     -1.66968814	     -5.65135131	    -16.28394237	      0.50720096	     -4.71749761	     16.72818107	    -10.31952378	      6.26721423	      0.86691257	     -6.53170768	     10.83383496	      4.36387851	      6.39209790	     -5.49561707	     -1.92485853	     -6.73950665	     -7.72605854	    -15.51242481	      6.68927576	     15.32225782	     90.00000000	      6.86099444	    -19.89225023	     19.71473065	     37.25252202	     90.00000000
      2.04000000	     -1.07695875	      3.13871721	      2.34298091	      0.39441241	      0.91287473	     -0.25343339	     24.65479459	     -1.70950191	     -6.09620067	    -12.58330453	      1.17198910	     -2.63023212	     13.92864461	    -11.46571171	      6.10153077	      1.01326489	     -6.26365456	     10.85356771	      4.81882832	      6.71603807	     -5.57060373	     -1.95836205	     -7.13019596	     -8.02019781	    -15.35334521	      6.54573496	     14.83556235	     90.00000000	      7.04995287	    -20.01065741	     18.87253669	     38.41339383	     90.00000000
      2.05000000	     -1.00527706	      3.18701447	      2.65416470	      0.40841289	      0.91110579	     -0.25294759	     24.42400469	     -1.74439602	     -6.69235468	     -9.45026650	      1.50678490	     -0.81703592	     13.83598288	    -12.56750687	      5.92523895	      1.15945142	     -6.15608330	     10.88659375	      5.39109715	      6.89390828	     -5.60827905	     -2.00412416	     -7.43956644	     -8.32681536	    -15.19249835	      6.23186871	     14.37681989	     90.00000000	      7.20943945	    -20.24000180	     18.55981039	     39.59536616	     90.00000000
      2.06000000	     -0.90500115	      3.15122276	      2.96470304	      0.42237383	      0.90936313	     -0.25235850	     24.24625074	     -1.66910297	     -7.24221921	     -6.85264846	      1.89883309	      0.75908487	     13.51993410	    -13.60011220	      5.64699019	      1.41098478	     -6.19479641	     10.98318403	      5.83282945	      7.18871312	     -5.69794461	     -1.96960391	     -7.78361901	     -8.59198976	    -15.07223696	      5.99778690	     14.07733900	     90.00000000	      7.27923790	    -20.37330597	     17.77741759	     40.71713442	     90.00000000
      2.07000000	     -1.10771816	      3.23438972	      3.11455218	      0.43634430	      0.90710526	     -0.25164454	     24.55099115	     -1.62145622	     -7.22842446	     -5.00138139	      2.06992542	      1.29869874	     13.47006354	    -14.19542425	      5.57270089	      1.66200901	     -6.47690232	     11.02995875	      5.96130419	      7.26670263	     -5.38315395	     -2.04033938	     -7.84047427	     -9.05047268	    -14.96446116	      5.90564249	     14.02153696	     90.00000000	      7.50453954	    -20.43899529	     17.54448766	     41.30135621	     90.00000000
      2.08000000	     -0.91886149	      3.14376346	      3.47261449	      0.45035349	      0.90552560	     -0.25119615	     24.46505001	     -1.51327564	     -7.87826251	     -3.75165324	      2.10732452	      2.41231155	     13.05701343	    -15.12042415	      5.23130189	      2.12058843	     -6.87883556	     11.04249358	      6.10326104	      7.81245973	     -5.61757450	     -1.91294205	     -8.37061639	     -8.94800965	    -14.87757768	      5.64100486	     13.31514247	     90.00000000	      7.16431967	    -20.58772628	     16.34443181	     42.94710904	     90.00000000
      2.09000000	     -0.99716532	      3.22068433	      3.54341574	      0.46463261	      0.90340303	     -0.25023544	     24.85288657	     -1.44624767	     -7.96138338	     -3.41139108	      2.14153830	      2.54587331	     13.03701165	    -15.67774141	      5.15878739	      2.20889081	     -7.48326677	     11.01047134	      6.11870642	      7.85816290	     -5.43541919	     -2.00558528	     -8.41653112	     -9.35439953	    -14.86380928	      5.60476223	     13.57356792	     90.00000000	      7.28996816	    -20.69468591	     16.13268829	     43.31969084	     90.00000000
      2.10000000	     -0.72699099	      3.08045202	      3.89597475	      0.47930480	      0.90195058	     -0.24971425	     24.62893759	     -1.30190748	     -8.48648736	     -3.30512398	      2.33124295	      3.35129873	     11.63873578	    -16.53422978	      4.75680615	      2.65603659	     -8.19691139	     10.32866039	      6.05390780	     12.35654624	     -5.63919163	     -1.79699239	     -9.06428189	     -8.99969403	    -14.80853369	      6.87287845	     12.44253830	     90.00000000	      6.60983182	    -20.69352336	     14.49545796	     44.96223831	     90.00000000
      2.11000000	     -0.70515173	      3.10309620	      3.97209633	      0.49415409	      0.90004232	     -0.24895800	     24.82320225	     -1.23955620	     -8.33422573	     -4.00418634	      2.29704181	      3.31847643	     11.63573094	    -17.04922862	      4.63771297	      2.70804120	     -9.11017442	     10.20313202	      6.03432310	     12.36248537	     -5.48275613	     -1.78851905	     -9.18067546	     -9.36122482	    -14.87555605	      6.81170549	     12.95187841	     90.00000000	      6.53834834	    -20.69996588	     14.37115589	     45.25604895	     90.00000000
      2.12000000	     -0.56289432	      2.98486006	      4.34637799	      0.50951208	      0.89836774	     -0.24880908	     24.91835202	     -1.16877654	     -8.82012334	     -5.43967328	      2.51748234	      2.63205479	     11.64136537	    -17.64246198	      4.27976992	      3.09011607	    -10.09832006	      9.64481803	      6.21724673	     12.52981033	     -5.43965353	     -1.52191102	     -9.59666245	     -9.50880009	    -14.86972108	      6.48237200	     12.58881907	     90.00000000	      6.04067355	    -20.67189716	     13.78623885	     46.22323531	     90.00000000
      2.13000000	     -0.38184143	      2.89316964	      4.53582787	      0.52507188	      0.89664943	     -0.24816317	     25.01602038	     -1.04826431	     -8.81031066	     -7.34742765	      2.52892697	      2.01510089	     11.61594829	    -18.14741536	      3.94960012	      3.09899069	    -11.34960914	      9.18183311	      6.41703407	     12.69372443	     -5.38353757	     -1.35958524	     -9.84522190	     -9.72808747	    -14.91994136	      6.34666218	     12.72687462	     90.00000000	      5.56719692	    -20.58729427	     13.23364236	     46.84162545	     90.00000000
      2.14000000	     -0.23754725	      2.77259575	      4.69188024	      0.54083355	      0.89489877	     -0.24783943	     25.08964973	     -0.89697817	     -8.53693507	     -9.50204102	      2.57586367	      1.48115695	     11.59976444	    -18.50000493	      3.64046952	      3.13769251	    -12.78261651	      8.62235729	      6.57997836	     12.77856629	     -5.26926747	     -1.08347393	    -10.04051894	    -10.01919597	    -15.11771718	      6.24922998	     13.13493953	     90.00000000	      5.09392112	    -20.46460629	     12.89959550	     47.31720650	     90.00000000
